<?xml version="1.0" encoding="UTF-8" standalone="no"?>
<!-- Uploaded to: SVG Repo, www.svgrepo.com, Generator: SVG Repo Mixer Tools -->

<svg
   version="1.1"
   id="HOUSE"
   width="800px"
   height="800px"
   viewBox="0 0 1800 1800"
   enable-background="new 0 0 1800 1800"
   xml:space="preserve"
   sodipodi:docname="house.svg"
   inkscape:version="1.2.2 (b0a84865, 2022-12-01)"
   xmlns:inkscape="http://www.inkscape.org/namespaces/inkscape"
   xmlns:sodipodi="http://sodipodi.sourceforge.net/DTD/sodipodi-0.dtd"
   xmlns="http://www.w3.org/2000/svg"
   xmlns:svg="http://www.w3.org/2000/svg"><defs
   id="defs13" /><sodipodi:namedview
   id="namedview11"
   pagecolor="#ffffff"
   bordercolor="#000000"
   borderopacity="0.25"
   inkscape:showpageshadow="2"
   inkscape:pageopacity="0.0"
   inkscape:pagecheckerboard="0"
   inkscape:deskcolor="#d1d1d1"
   showgrid="false"
   inkscape:zoom="0.4601083"
   inkscape:cx="336.87721"
   inkscape:cy="58.681836"
   inkscape:window-width="1309"
   inkscape:window-height="780"
   inkscape:window-x="0"
   inkscape:window-y="25"
   inkscape:window-maximized="0"
   inkscape:current-layer="HOUSE" />
<g
   id="g8"
   style="fill:#ffffff;fill-opacity:1"
   transform="translate(2.1531772,4.890153)">
	<path
   fill="#333333"
   d="M 1783.877,760.195 1448.221,519.4 c 0.936,-5.06 1.49,-10.252 1.49,-15.58 V 88.032 c 0,-47.163 -38.371,-85.533 -85.533,-85.533 h -124.246 c -47.162,0 -85.533,38.37 -85.533,85.533 V 308.619 L 918.581,139.452 c -4.537,-3.26 -9.654,-5.051 -14.847,-5.618 -1.234,-0.156 -2.483,-0.246 -3.732,-0.255 -1.249,0.009 -2.497,0.099 -3.732,0.255 -5.188,0.567 -10.309,2.358 -14.846,5.618 l -865.3,620.743 c -14.143,10.142 -17.383,29.829 -7.236,43.971 6.155,8.581 15.822,13.149 25.63,13.149 6.361,0 12.78,-1.921 18.341,-5.913 l 847.143,-607.712 254.396,182.496 63.024,45.211 132.331,94.932 64.783,46.473 332.604,238.601 c 5.562,3.991 11.979,5.913 18.341,5.913 9.809,0 19.476,-4.568 25.631,-13.149 10.148,-14.14 6.908,-33.83 -7.235,-43.972 z M 1217.423,353.834 V 88.032 c 0,-12.411 10.099,-22.509 22.509,-22.509 h 124.246 c 12.41,0 22.509,10.098 22.509,22.509 v 387.226 z"
   id="path2"
   style="fill:#ffffff;fill-opacity:1" />
	<path
   fill="#333333"
   d="m 1534.746,800.935 c -17.404,0 -31.512,14.107 -31.512,31.512 v 894.17 c 0,1.895 -6.37,7.86 -17.418,7.86 h -353.228 v -548.772 c 0,-17.404 -14.107,-31.512 -31.513,-31.512 H 698.928 c -17.404,0 -31.512,14.107 -31.512,31.512 v 548.772 H 314.188 c -11.048,0 -17.418,-5.966 -17.418,-7.86 v -894.17 c 0,-17.405 -14.107,-31.512 -31.512,-31.512 -17.404,0 -31.512,14.107 -31.512,31.512 v 894.17 c 0,1.169 0.136,2.303 0.197,3.459 2.071,37.474 37.214,67.426 80.245,67.426 h 384.74 c 17.405,0 31.512,-14.108 31.512,-31.513 v -548.771 h 339.125 v 548.771 c 0,17.404 14.107,31.513 31.512,31.513 h 384.74 c 43.031,0 78.174,-29.952 80.244,-67.426 0.063,-1.156 0.198,-2.29 0.198,-3.459 v -894.17 c 0,-17.405 -14.108,-31.512 -31.513,-31.512 z"
   id="path4"
   style="fill:#ffffff;fill-opacity:1" />
	<path
   fill="#333333"
   d="m 1073.253,782.176 c 0,-95.411 -77.624,-173.04 -173.04,-173.04 -95.416,0 -173.04,77.628 -173.04,173.04 0,95.416 77.624,173.04 173.04,173.04 95.416,0 173.04,-77.624 173.04,-173.04 z m -283.055,0 c 0,-60.663 49.352,-110.016 110.016,-110.016 60.664,0 110.015,49.353 110.015,110.016 0,60.664 -49.352,110.016 -110.015,110.016 -60.663,0 -110.016,-49.352 -110.016,-110.016 z"
   id="path6"
   style="fill:#ffffff;fill-opacity:1" />
</g>
</svg>
